<mxfile host="app.diagrams.net" modified="2024-04-02T02:58:46.868Z" agent="Mozilla/5.0 (Windows NT 10.0; Win64; x64) AppleWebKit/537.36 (KHTML, like Gecko) Chrome/123.0.0.0 Safari/537.36" version="24.2.1" etag="h0GobTb4r9ead-sV2aBu" type="github">
  <diagram name="페이지-1" id="AXwUxG8W-QxNa709nkWl">
    <mxGraphModel>
      <root>
        <mxCell id="0" />
        <mxCell id="1" parent="0" />
      </root>
    </mxGraphModel>
  </diagram>
</mxfile>
